<svg xmlns="http://www.w3.org/2000/svg" width="256" height="256" viewBox="0 0 100 100"><rect width="100" height="100" rx="50" fill="#1ddaac"></rect><path fill="#fff" d="M32.24 69.47L32.24 69.47Q32.24 73.01 25.34 73.01L25.34 73.01Q23.84 73.01 23.57 71.48Q23.30 69.95 23.30 67.67Q23.30 65.39 23.63 62.78Q23.96 60.17 24.50 57.11L24.50 57.11Q25.52 51.23 27.41 44.42Q29.30 37.61 31.16 33.89L31.16 33.89Q27.38 34.13 23.66 35.24Q19.94 36.35 18.38 36.80Q16.82 37.25 15.80 37.25Q14.78 37.25 14.78 36.59L14.78 36.59Q14.78 35.81 15.98 34.28Q17.18 32.75 19.40 31.19L19.40 31.19Q25.04 27.35 31.94 27.29L31.94 27.29L51.68 27.47Q53.30 27.47 53.30 28.73L53.30 28.73Q53.30 29.09 52.82 30.02Q52.34 30.95 51.98 32.03L51.98 32.03Q51.20 34.19 48.71 34.19Q46.22 34.19 36.86 33.83L36.86 33.83Q36.62 36.47 35.90 40.58Q35.18 44.69 34.34 49.55L34.34 49.55Q32.30 61.97 32.24 69.47ZM60.44 58.25L59.84 69.47Q59.84 73.01 52.94 73.01L52.94 73.01Q51.44 73.01 51.17 71.48Q50.90 69.95 50.90 67.19L50.90 67.19Q50.90 61.37 53.24 52.79L53.24 52.79Q57.14 38.63 61.58 36.11L61.58 36.11Q62.18 35.75 62.90 35.75Q63.62 35.75 63.62 38.09Q63.62 40.43 63.38 42.23L63.38 42.23Q62.90 45.83 61.67 51.53Q60.44 57.23 60.44 58.25L60.44 58.25ZM63.92 53.33L63.92 53.33Q63.92 52.55 64.79 52.31Q65.66 52.07 66.98 51.86Q68.30 51.65 69.86 51.23Q71.42 50.81 72.74 49.67L72.74 49.67Q75.80 47.03 75.80 40.85L75.80 40.85Q75.80 36.89 73.13 34.79Q70.46 32.69 65.45 32.69Q60.44 32.69 56.06 34.79L56.06 34.79Q54.44 35.57 53.15 36.23Q51.86 36.89 50.78 36.89Q49.70 36.89 49.70 36.23L49.70 36.23Q49.70 35.21 51.68 32.87L51.68 32.87Q53.66 30.71 57.95 28.85Q62.24 26.99 66.98 26.99L66.98 26.99Q75.92 26.93 80.90 31.19L80.90 31.19Q85.22 34.91 85.22 40.82Q85.22 46.73 80.96 51.38Q76.70 56.03 70.31 56.03Q63.92 56.03 63.92 53.33Z"></path></svg>